<svg width="831" height="166" viewBox="0 0 831 166" fill="none" xmlns="http://www.w3.org/2000/svg">
<path d="M441.591 143.004C435.831 143.004 430.743 142.092 426.327 140.268C421.911 138.444 418.215 135.852 415.239 132.492C412.359 129.036 410.151 124.956 408.615 120.252C407.079 115.452 406.311 110.172 406.311 104.412C406.311 98.5557 407.079 93.2277 408.615 88.4277C410.247 83.6277 412.551 79.4997 415.527 76.0437C418.503 72.5877 422.103 69.9477 426.327 68.1237C430.551 66.2037 435.303 65.2437 440.583 65.2437C444.615 65.2437 448.359 65.5797 451.815 66.2517C455.367 66.9237 458.103 67.7877 460.023 68.8437L457.575 76.9077C455.655 75.9477 453.495 75.1797 451.095 74.6037C448.695 74.0277 445.479 73.7397 441.447 73.7397C433.191 73.7397 426.903 76.4277 422.583 81.8037C418.359 87.0837 416.247 94.6197 416.247 104.412C416.247 108.828 416.727 112.908 417.687 116.652C418.647 120.3 420.183 123.468 422.295 126.156C424.503 128.748 427.287 130.812 430.647 132.348C434.103 133.788 438.279 134.508 443.175 134.508C447.207 134.508 450.567 134.076 453.255 133.212C456.039 132.252 458.055 131.436 459.303 130.764L461.319 138.828C459.591 139.788 456.855 140.7 453.111 141.564C449.463 142.524 445.623 143.004 441.591 143.004Z" fill="#2E1300"/>
<path d="M468.369 141.42V31.4037L477.729 29.6757V69.1317C480.801 67.9797 483.921 67.1157 487.089 66.5397C490.257 65.8677 493.425 65.5317 496.593 65.5317C502.353 65.5317 507.153 66.3477 510.993 67.9797C514.833 69.6117 517.905 71.9637 520.209 75.0357C522.513 78.0117 524.097 81.6117 524.961 85.8357C525.921 90.0597 526.401 94.7157 526.401 99.8037V141.42H517.041V102.828C517.041 97.5477 516.657 93.0837 515.889 89.4357C515.217 85.7877 514.017 82.8117 512.289 80.5077C510.657 78.2037 508.449 76.5717 505.665 75.6117C502.881 74.5557 499.377 74.0277 495.153 74.0277C493.521 74.0277 491.745 74.1717 489.825 74.4597C488.001 74.7477 486.273 75.0837 484.641 75.4677C483.009 75.7557 481.521 76.0917 480.177 76.4757C478.929 76.8597 478.113 77.1477 477.729 77.3397V141.42H468.369Z" fill="#2E1300"/>
<path d="M565.185 134.652C568.833 134.652 572.001 134.556 574.689 134.364C577.473 134.076 579.825 133.74 581.745 133.356V107.148C580.689 106.668 579.009 106.188 576.705 105.708C574.401 105.132 571.233 104.844 567.201 104.844C564.897 104.844 562.497 105.036 560.001 105.42C557.505 105.708 555.201 106.428 553.089 107.58C550.977 108.636 549.249 110.124 547.905 112.044C546.561 113.964 545.889 116.508 545.889 119.676C545.889 122.46 546.321 124.812 547.185 126.732C548.145 128.652 549.441 130.188 551.073 131.34C552.801 132.492 554.817 133.356 557.121 133.932C559.521 134.412 562.209 134.652 565.185 134.652ZM564.321 65.2437C569.217 65.2437 573.345 65.9637 576.705 67.4037C580.161 68.7477 582.945 70.6677 585.057 73.1637C587.169 75.5637 588.705 78.4437 589.665 81.8037C590.625 85.1637 591.105 88.8117 591.105 92.7477V139.692C590.145 139.98 588.753 140.316 586.929 140.7C585.105 140.988 582.993 141.324 580.593 141.708C578.193 142.092 575.505 142.38 572.529 142.572C569.649 142.86 566.673 143.004 563.601 143.004C559.665 143.004 556.017 142.572 552.657 141.708C549.393 140.844 546.513 139.5 544.017 137.676C541.617 135.756 539.697 133.356 538.257 130.476C536.913 127.5 536.241 123.9 536.241 119.676C536.241 115.644 537.009 112.188 538.545 109.308C540.081 106.428 542.241 104.076 545.025 102.252C547.809 100.332 551.121 98.9397 554.961 98.0757C558.801 97.2117 562.977 96.7797 567.489 96.7797C568.833 96.7797 570.225 96.8757 571.665 97.0677C573.201 97.1637 574.641 97.3557 575.985 97.6437C577.425 97.8357 578.625 98.0757 579.585 98.3637C580.641 98.5557 581.361 98.7477 581.745 98.9397V94.3317C581.745 91.7397 581.553 89.2437 581.169 86.8437C580.785 84.3477 579.921 82.1397 578.577 80.2197C577.329 78.2037 575.505 76.6197 573.105 75.4677C570.801 74.2197 567.729 73.5957 563.889 73.5957C558.417 73.5957 554.337 73.9797 551.649 74.7477C548.961 75.5157 546.993 76.1397 545.745 76.6197L544.449 68.4117C546.081 67.6437 548.577 66.9237 551.937 66.2517C555.393 65.5797 559.521 65.2437 564.321 65.2437Z" fill="#2E1300"/>
<path d="M606.339 69.5637C609.123 68.7957 612.723 67.9317 617.139 66.9717C621.651 66.0117 627.459 65.5317 634.563 65.5317C643.971 65.5317 650.787 68.2677 655.011 73.7397C655.491 73.3557 656.403 72.7317 657.747 71.8677C659.187 70.9077 660.963 69.9477 663.075 68.9877C665.187 68.0277 667.635 67.2117 670.419 66.5397C673.299 65.8677 676.467 65.5317 679.923 65.5317C685.587 65.5317 690.147 66.3957 693.603 68.1237C697.155 69.7557 699.891 72.1077 701.811 75.1797C703.731 78.1557 705.027 81.7557 705.699 85.9797C706.371 90.2037 706.707 94.8117 706.707 99.8037V141.42H697.347V102.828C697.347 97.9317 697.107 93.7077 696.627 90.1557C696.243 86.5077 695.379 83.5317 694.035 81.2277C692.787 78.8277 690.963 77.0517 688.563 75.8997C686.163 74.6517 683.043 74.0277 679.203 74.0277C676.323 74.0277 673.683 74.3157 671.283 74.8917C668.979 75.3717 666.963 75.9957 665.235 76.7637C663.507 77.5317 662.067 78.2997 660.915 79.0677C659.859 79.8357 659.091 80.4117 658.611 80.7957C659.475 83.2917 660.099 86.1237 660.483 89.2917C660.963 92.3637 661.203 95.6277 661.203 99.0837V141.42H651.843V102.828C651.843 97.9317 651.603 93.7077 651.123 90.1557C650.739 86.5077 649.875 83.5317 648.531 81.2277C647.187 78.8277 645.267 77.0517 642.771 75.8997C640.371 74.6517 637.155 74.0277 633.123 74.0277C628.611 74.0277 624.771 74.2677 621.603 74.7477C618.531 75.2277 616.563 75.6597 615.699 76.0437V141.42H606.339V69.5637Z" fill="#2E1300"/>
<path d="M745.484 134.652C749.132 134.652 752.3 134.556 754.988 134.364C757.772 134.076 760.124 133.74 762.044 133.356V107.148C760.988 106.668 759.308 106.188 757.004 105.708C754.7 105.132 751.532 104.844 747.5 104.844C745.196 104.844 742.796 105.036 740.3 105.42C737.804 105.708 735.5 106.428 733.388 107.58C731.276 108.636 729.548 110.124 728.204 112.044C726.86 113.964 726.188 116.508 726.188 119.676C726.188 122.46 726.62 124.812 727.484 126.732C728.444 128.652 729.74 130.188 731.372 131.34C733.1 132.492 735.116 133.356 737.42 133.932C739.82 134.412 742.508 134.652 745.484 134.652ZM744.62 65.2437C749.516 65.2437 753.644 65.9637 757.004 67.4037C760.46 68.7477 763.244 70.6677 765.356 73.1637C767.468 75.5637 769.004 78.4437 769.964 81.8037C770.924 85.1637 771.404 88.8117 771.404 92.7477V139.692C770.444 139.98 769.052 140.316 767.228 140.7C765.404 140.988 763.292 141.324 760.892 141.708C758.492 142.092 755.804 142.38 752.828 142.572C749.948 142.86 746.972 143.004 743.9 143.004C739.964 143.004 736.316 142.572 732.956 141.708C729.692 140.844 726.812 139.5 724.316 137.676C721.916 135.756 719.996 133.356 718.556 130.476C717.212 127.5 716.54 123.9 716.54 119.676C716.54 115.644 717.308 112.188 718.844 109.308C720.38 106.428 722.54 104.076 725.324 102.252C728.108 100.332 731.42 98.9397 735.26 98.0757C739.1 97.2117 743.276 96.7797 747.788 96.7797C749.132 96.7797 750.524 96.8757 751.964 97.0677C753.5 97.1637 754.94 97.3557 756.284 97.6437C757.724 97.8357 758.924 98.0757 759.884 98.3637C760.94 98.5557 761.66 98.7477 762.044 98.9397V94.3317C762.044 91.7397 761.852 89.2437 761.468 86.8437C761.084 84.3477 760.22 82.1397 758.876 80.2197C757.628 78.2037 755.804 76.6197 753.404 75.4677C751.1 74.2197 748.028 73.5957 744.188 73.5957C738.716 73.5957 734.636 73.9797 731.948 74.7477C729.26 75.5157 727.292 76.1397 726.044 76.6197L724.748 68.4117C726.38 67.6437 728.876 66.9237 732.236 66.2517C735.692 65.5797 739.82 65.2437 744.62 65.2437Z" fill="#2E1300"/>
<path d="M801.901 134.796C807.277 134.796 811.693 133.932 815.149 132.204C818.701 130.38 820.477 127.356 820.477 123.132C820.477 121.116 820.141 119.388 819.469 117.948C818.893 116.508 817.885 115.212 816.445 114.06C815.005 112.908 813.085 111.804 810.685 110.748C808.381 109.692 805.501 108.444 802.045 107.004C799.261 105.852 796.621 104.7 794.125 103.548C791.629 102.3 789.421 100.908 787.501 99.3717C785.581 97.7397 784.045 95.8197 782.893 93.6117C781.741 91.4037 781.165 88.7157 781.165 85.5477C781.165 79.4997 783.421 74.6037 787.933 70.8597C792.541 67.1157 798.829 65.2437 806.797 65.2437C811.885 65.2437 816.061 65.6757 819.325 66.5397C822.685 67.4037 825.037 68.1717 826.381 68.8437L824.221 77.1957C823.069 76.6197 821.101 75.8517 818.317 74.8917C815.629 73.9317 811.645 73.4517 806.365 73.4517C804.253 73.4517 802.237 73.6917 800.317 74.1717C798.493 74.5557 796.861 75.2277 795.421 76.1877C793.981 77.0517 792.829 78.2037 791.965 79.6437C791.101 80.9877 790.669 82.6677 790.669 84.6837C790.669 86.6997 791.053 88.4277 791.821 89.8677C792.589 91.3077 793.693 92.6037 795.133 93.7557C796.669 94.8117 798.493 95.8197 800.605 96.7797C802.813 97.7397 805.309 98.7957 808.093 99.9477C810.973 101.1 813.709 102.3 816.301 103.548C818.989 104.7 821.341 106.14 823.357 107.868C825.373 109.5 827.005 111.516 828.253 113.916C829.501 116.22 830.125 119.148 830.125 122.7C830.125 129.42 827.581 134.508 822.493 137.964C817.501 141.42 810.637 143.148 801.901 143.148C795.373 143.148 790.381 142.572 786.925 141.42C783.469 140.364 781.165 139.548 780.013 138.972L782.461 130.476C782.749 130.668 783.373 131.004 784.333 131.484C785.293 131.868 786.589 132.348 788.221 132.924C789.853 133.404 791.773 133.836 793.981 134.22C796.285 134.604 798.925 134.796 801.901 134.796Z" fill="#2E1300"/>
<path d="M164.911 41.6277H187.375V141.42H164.911V41.6277Z" fill="#FF6B00"/>
<path d="M200.393 68.2677C204.041 67.2117 208.745 66.2517 214.505 65.3877C220.265 64.4277 226.313 63.9477 232.649 63.9477C239.081 63.9477 244.409 64.8117 248.633 66.5397C252.953 68.1717 256.361 70.5237 258.857 73.5957C261.353 76.6677 263.129 80.3157 264.185 84.5397C265.241 88.7637 265.769 93.4677 265.769 98.6517V141.42H244.313V101.244C244.313 94.3317 243.401 89.4357 241.577 86.5557C239.753 83.6757 236.345 82.2357 231.353 82.2357C229.817 82.2357 228.185 82.3317 226.457 82.5237C224.729 82.6197 223.193 82.7637 221.849 82.9557V141.42H200.393V68.2677Z" fill="#FF6B00"/>
<path d="M309.382 29.6757C313.414 29.6757 317.11 30.1077 320.47 30.9717C323.83 31.7397 326.422 32.5077 328.246 33.2757L324.07 50.4117C322.15 49.5477 320.038 48.9237 317.734 48.5397C315.526 48.0597 313.462 47.8197 311.542 47.8197C308.95 47.8197 306.742 48.2037 304.918 48.9717C303.19 49.6437 301.798 50.6037 300.742 51.8517C299.782 53.0997 299.062 54.5877 298.582 56.3157C298.198 58.0437 298.006 59.9157 298.006 61.9317V65.6757H324.502V83.5317H298.006V141.42H276.55V61.6437C276.55 51.8517 279.286 44.0757 284.758 38.3157C290.326 32.5557 298.534 29.6757 309.382 29.6757Z" fill="#FF6B00"/>
<path d="M398.383 103.404C398.383 109.356 397.519 114.828 395.791 119.82C394.063 124.716 391.567 128.94 388.303 132.492C385.039 135.948 381.103 138.636 376.495 140.556C371.983 142.476 366.895 143.436 361.231 143.436C355.663 143.436 350.575 142.476 345.967 140.556C341.455 138.636 337.567 135.948 334.303 132.492C331.039 128.94 328.495 124.716 326.671 119.82C324.847 114.828 323.935 109.356 323.935 103.404C323.935 97.4517 324.847 92.0277 326.671 87.1317C328.591 82.2357 331.183 78.0597 334.447 74.6037C337.807 71.1477 341.743 68.4597 346.255 66.5397C350.863 64.6197 355.855 63.6597 361.231 63.6597C366.703 63.6597 371.695 64.6197 376.207 66.5397C380.815 68.4597 384.751 71.1477 388.015 74.6037C391.279 78.0597 393.823 82.2357 395.647 87.1317C397.471 92.0277 398.383 97.4517 398.383 103.404ZM376.495 103.404C376.495 96.7797 375.151 91.5957 372.463 87.8517C369.871 84.0117 366.127 82.0917 361.231 82.0917C356.335 82.0917 352.543 84.0117 349.855 87.8517C347.167 91.5957 345.823 96.7797 345.823 103.404C345.823 110.028 347.167 115.308 349.855 119.244C352.543 123.084 356.335 125.004 361.231 125.004C366.127 125.004 369.871 123.084 372.463 119.244C375.151 115.308 376.495 110.028 376.495 103.404Z" fill="#FF6B00"/>
<path d="M60.2657 147.086C89.4313 147.086 113.391 123.973 113.391 94.3085C113.391 87.0268 113.019 79.221 108.981 67.0872C104.944 54.9535 104.133 53.3881 99.8651 45.8939C98.0411 61.1833 88.2838 67.5583 85.8046 69.4637C85.8046 67.4804 79.9042 45.5681 70.9544 32.4533C62.1676 19.5864 50.218 11.1466 43.2126 5.41974C43.2126 16.2927 40.1561 32.4568 35.7751 40.6947C31.3976 48.9291 30.5759 49.2302 25.104 55.3572C19.6357 61.4843 17.1246 63.3791 12.5488 70.8166C7.97652 78.2541 7.14069 88.1602 7.14069 95.4418C7.14069 125.107 31.1001 147.086 60.2657 147.086Z" stroke="#FF6B00" stroke-width="10" stroke-linejoin="round"/>
<circle cx="32.5036" cy="99.3521" r="7" fill="#FF6B00"/>
<circle cx="58.5036" cy="99.3521" r="7" fill="#FF6B00"/>
<circle cx="84.5036" cy="99.3521" r="7" fill="#FF6B00"/>
<path d="M23.0958 151.625C19.5875 153.208 15.6809 150.4 16.064 146.57L17.3826 133.388C17.7657 129.558 22.1511 127.579 25.2763 129.826L36.0324 137.559C39.1576 139.805 38.6787 144.593 35.1704 146.176L23.0958 151.625Z" fill="#FF6B00"/>
</svg>
